<svg viewBox="0 0 300 300" xmlns="http://www.w3.org/2000/svg">
  <defs>
    <radialGradient id="intersal-bg" cx="50%" cy="50%" r="50%">
      <stop offset="0%" stop-color="#ffffff" />
      <stop offset="85%" stop-color="#f3f8f4" />
      <stop offset="100%" stop-color="#e2efe5" />
    </radialGradient>
    <clipPath id="badge-clip">
      <rect x="48" y="60" width="204" height="82" rx="14" ry="14" />
    </clipPath>
  </defs>
  <circle cx="150" cy="150" r="142" fill="url(#intersal-bg)" stroke="#016836" stroke-width="12" />
  <circle cx="150" cy="150" r="126" fill="none" stroke="#a3cbb3" stroke-width="1.5" stroke-dasharray="3,4" opacity="0.6" />
  <circle cx="150" cy="150" r="105" fill="none" stroke="#7eb894" stroke-width="1" opacity="0.4" />
  <circle cx="150" cy="150" r="80" fill="none" stroke="#a3cbb3" stroke-width="1" stroke-dasharray="2,3" opacity="0.5" />
  <path d="M 28 150 L 38 150 M 262 150 L 272 150 M 150 28 L 150 38" stroke="#016836" stroke-width="2" opacity="0.5" />
  <g>
    <rect x="48" y="60" width="204" height="82" rx="14" ry="14" fill="#016836" />
    <path d="M 48 126 C 85 112, 115 138, 150 120 C 185 102, 215 128, 252 116 L 252 142 L 48 142 Z" fill="#ffffff" clip-path="url(#badge-clip)" />
    <text x="150" y="105" font-family="'Arial Black', 'Helvetica Neue', sans-serif" font-weight="900" font-style="italic" font-size="36" fill="#ffffff" text-anchor="middle" letter-spacing="2">INTERSAL</text>
  </g>
  <text x="150" y="178" font-family="'Arial Black', 'Trebuchet MS', sans-serif" font-weight="900" font-size="34" fill="#016836" text-anchor="middle" letter-spacing="1">SALA DE</text>
  <text x="150" y="218" font-family="'Arial Black', 'Trebuchet MS', sans-serif" font-weight="900" font-size="34" fill="#016836" text-anchor="middle" letter-spacing="0.5">OPERAÇÃO</text>
  <g transform="translate(112, 222)">
    <line x1="0" y1="52" x2="76" y2="52" stroke="#111827" stroke-width="4" stroke-linecap="round" />
    <rect x="5" y="38" width="10" height="14" fill="#111827" rx="1" />
    <rect x="22" y="28" width="10" height="24" fill="#111827" rx="1" />
    <rect x="40" y="20" width="10" height="32" fill="#111827" rx="1" />
    <rect x="58" y="10" width="10" height="42" fill="#111827" rx="1" />
    <path d="M 5 32 L 24 22 L 40 28 L 65 6" fill="none" stroke="#016836" stroke-width="4.5" stroke-linecap="round" stroke-linejoin="round" />
    <path d="M 52 5 L 66 5 L 66 19" fill="none" stroke="#016836" stroke-width="4.5" stroke-linecap="round" stroke-linejoin="round" />
    <circle cx="5" cy="32" r="2.5" fill="#016836" />
  </g>
</svg>
